<svg width="46" height="46" viewBox="0 0 46 46" fill="none" xmlns="http://www.w3.org/2000/svg">
<rect x="0.5" y="0.5" width="45" height="45" rx="5.5" fill="#444444" stroke="#B5B5B5"/>
<path fill-rule="evenodd" clip-rule="evenodd" d="M12.5789 30.7671C11.9892 31.349 11.9892 32.2924 12.5789 32.8743L12.8333 33.1253C13.423 33.7072 14.379 33.7072 14.9687 33.1253L22.7768 25.4204L31.0184 33.5532C31.6081 34.135 32.5641 34.135 33.1538 33.5532L33.4082 33.3021C33.9979 32.7202 33.9979 31.7768 33.4082 31.1949L25.1666 23.0622L33.5448 14.7946C34.1345 14.2127 34.1345 13.2693 33.5448 12.6875L33.2904 12.4364C32.7008 11.8545 31.7447 11.8545 31.1551 12.4364L22.7768 20.704L14.832 12.8642C14.2424 12.2824 13.2863 12.2824 12.6967 12.8643L12.4423 13.1153C11.8526 13.6972 11.8526 14.6406 12.4423 15.2225L20.387 23.0622L12.5789 30.7671Z" fill="white"/>
</svg>
